<?xml version="1.0" encoding="UTF-8" standalone="no"?>
<!-- Created with Inkscape (http://www.inkscape.org/) -->

<svg
   xmlns:dc="http://purl.org/dc/elements/1.1/"
   xmlns:cc="http://creativecommons.org/ns#"
   xmlns:rdf="http://www.w3.org/1999/02/22-rdf-syntax-ns#"
   xmlns:svg="http://www.w3.org/2000/svg"
   xmlns="http://www.w3.org/2000/svg"
   xmlns:sodipodi="http://sodipodi.sourceforge.net/DTD/sodipodi-0.dtd"
   xmlns:inkscape="http://www.inkscape.org/namespaces/inkscape"
   id="svg2"
   version="1.1"
   inkscape:version="0.91 r13725"
   xml:space="preserve"
   width="404.39725"
   height="131.60126"
   viewBox="0 0 404.39725 131.60126"
   sodipodi:docname="logo.svg"><metadata
     id="metadata8"><rdf:RDF><cc:Work
         rdf:about=""><dc:format>image/svg+xml</dc:format><dc:type
           rdf:resource="http://purl.org/dc/dcmitype/StillImage" /><dc:title></dc:title></cc:Work></rdf:RDF></metadata><defs
     id="defs6"><clipPath
       clipPathUnits="userSpaceOnUse"
       id="clipPath20"><path
         d="m 0,566.93 566.93,0 L 566.93,0 0,0 0,566.93 Z"
         id="path22"
         inkscape:connector-curvature="0" /></clipPath></defs><sodipodi:namedview
     pagecolor="#ffffff"
     bordercolor="#666666"
     borderopacity="1"
     objecttolerance="10"
     gridtolerance="10"
     guidetolerance="10"
     inkscape:pageopacity="0"
     inkscape:pageshadow="2"
     inkscape:window-width="1920"
     inkscape:window-height="1016"
     id="namedview4"
     showgrid="false"
     fit-margin-top="0"
     fit-margin-left="0"
     fit-margin-right="0"
     fit-margin-bottom="0"
     inkscape:zoom="3.4050677"
     inkscape:cx="202.19862"
     inkscape:cy="26.157425"
     inkscape:window-x="0"
     inkscape:window-y="27"
     inkscape:window-maximized="1"
     inkscape:current-layer="g10" /><g
     id="g10"
     inkscape:groupmode="layer"
     inkscape:label="samu-cmyk kolor"
     transform="matrix(1.25,0,0,-1.25,-152.132,420.1315)"><g
       id="g12"
       transform="translate(289.8096,308.083)"><path
         d="m 0,0 -7.559,-11.472 7.283,-11.053 0.367,0 18.039,27.38 13.922,21.126 0,1.126 -15.204,0 L 0,0 Z"
         style="fill:#0f80cc;fill-opacity:1;fill-rule:nonzero;stroke:none"
         id="path14"
         inkscape:connector-curvature="0" /></g><g
       id="g16"><g
         id="g18"
         clip-path="url(#clipPath20)"><g
           id="g24"
           transform="translate(377.9961,298.4697)"><path
             d="m 0,0 c 0,-5.129 -1.222,-8.975 -3.664,-11.539 -2.441,-2.565 -5.83,-3.848 -10.163,-3.848 -0.87,0 -1.673,0.096 -2.466,0.201 -0.698,0.11 -1.371,0.256 -2.019,0.438 -0.008,0.002 -0.015,0.004 -0.023,0.006 0.004,-0.002 0.006,-0.002 0.01,-0.004 l -7.689,-11.668 0.002,0 c 1.717,-0.641 3.552,-1.129 5.508,-1.455 0.047,-0.006 0.087,-0.018 0.134,-0.024 0.883,-0.144 1.796,-0.25 2.727,-0.33 0.131,-0.009 0.252,-0.035 0.381,-0.043 1.056,-0.08 2.136,-0.123 3.251,-0.123 4.272,0 8.149,0.594 11.63,1.785 3.479,1.19 6.439,2.991 8.881,5.403 2.44,2.412 4.318,5.418 5.634,9.02 1.308,3.601 1.969,7.845 1.969,12.731 l 0,33.924 L 0,13.07 0,0 Z"
             style="fill:#18468b;fill-opacity:1;fill-rule:nonzero;stroke:none"
             id="path26"
             inkscape:connector-curvature="0" /></g><g
           id="g28"
           transform="translate(377.9961,311.54)"><path
             d="m 0,0 14.103,21.403 0,2.247 L 0,23.65 0,0 Z"
             style="fill:#052340;fill-opacity:1;fill-rule:nonzero;stroke:none"
             id="path30"
             inkscape:connector-curvature="0" /></g><g
           id="g32"
           transform="translate(350.3398,335.1904)"><path
             d="m 0,0 -14.103,0 0,-23.65 L 0,-2.247 0,0 Z"
             style="fill:#0f80cc;fill-opacity:1;fill-rule:nonzero;stroke:none"
             id="path34"
             inkscape:connector-curvature="0" /></g><g
           id="g36"
           transform="translate(359.6611,283.7275)"><path
             d="m 0,0 c -0.896,0.252 -1.728,0.594 -2.513,1 -0.239,0.119 -0.481,0.234 -0.708,0.371 -0.276,0.164 -0.537,0.356 -0.798,0.545 -0.583,0.422 -1.141,0.88 -1.64,1.424 -0.507,0.55 -0.936,1.181 -1.329,1.853 -0.178,0.305 -0.351,0.614 -0.509,0.94 -0.145,0.305 -0.271,0.628 -0.399,0.949 -0.385,0.986 -0.71,2.041 -0.937,3.202 0,0.01 -0.003,0.017 -0.005,0.023 0,0.005 0,0.006 -0.002,0.011 -0.125,0.657 -0.223,1.342 -0.306,2.047 -0.104,0.897 -0.175,1.828 -0.175,2.834 l 0,34.017 -14.103,-21.403 0,-12.981 c 0,-1.1 0.042,-2.166 0.11,-3.201 0.024,-0.374 0.066,-0.732 0.1,-1.096 0.058,-0.644 0.118,-1.281 0.206,-1.902 0.059,-0.434 0.136,-0.854 0.206,-1.278 0.089,-0.511 0.185,-1.017 0.295,-1.508 0.098,-0.452 0.205,-0.898 0.322,-1.334 0.111,-0.421 0.234,-0.833 0.361,-1.238 0.144,-0.461 0.289,-0.92 0.454,-1.361 0.125,-0.334 0.264,-0.65 0.399,-0.975 0.198,-0.472 0.39,-0.949 0.613,-1.398 0.083,-0.174 0.185,-0.334 0.274,-0.502 0.63,-1.205 1.335,-2.34 2.146,-3.373 0.599,-0.768 1.234,-1.498 1.933,-2.172 0.594,-0.572 1.217,-1.107 1.869,-1.609 0.564,-0.438 1.152,-0.84 1.757,-1.225 0.08,-0.047 0.154,-0.109 0.237,-0.158 1.379,-0.856 2.868,-1.576 4.451,-2.166 0.003,-0.004 0.007,-0.006 0.012,-0.008 L 0.01,-0.004 C 0.006,-0.002 0.004,-0.002 0,0"
             style="fill:#052340;fill-opacity:1;fill-rule:nonzero;stroke:none"
             id="path38"
             inkscape:connector-curvature="0" /></g><g
           id="g40"
           transform="translate(307.9395,280.9385)"><path
             d="m 0,0 0,-9.85 13.922,0 0,41.871 L 0,11.006 0,0 Z"
             style="fill:#18468b;fill-opacity:1;fill-rule:nonzero;stroke:none"
             id="path42"
             inkscape:connector-curvature="0" /></g><g
           id="g44"
           transform="translate(272.9619,335.1904)"><path
             d="m 0,0 -1.282,0 0,-22.252 0,-0.276 10.571,-16.051 7.559,11.472 L 0,0 Z"
             style="fill:#052340;fill-opacity:1;fill-rule:nonzero;stroke:none"
             id="path46"
             inkscape:connector-curvature="0" /></g><g
           id="g48"
           transform="translate(257.7617,291.3047)"><path
             d="m 0,0 -0.004,-20.216 13.922,0 0,41.573 L 0,-0.189 0,0 Z"
             style="fill:#18468b;fill-opacity:1;fill-rule:nonzero;stroke:none"
             id="path50"
             inkscape:connector-curvature="0" /></g><g
           id="g52"
           transform="translate(271.6797,335.1904)"><path
             d="m 0,0 -13.922,0 0.004,-43.886 0,-0.189 L 0,-22.528 0,-22.252 0,0 Z"
             style="fill:#0f80cc;fill-opacity:1;fill-rule:nonzero;stroke:none"
             id="path54"
             inkscape:connector-curvature="0" /></g><g
           id="g56"
           transform="translate(207.3931,335.6475)"><path
             d="m 0,0 -27.472,-64.559 14.333,0 L 13.003,0 0,0 Z"
             style="fill:#0f80cc;fill-opacity:1;fill-rule:nonzero;stroke:none"
             id="path58"
             inkscape:connector-curvature="0" /></g><g
           id="g60"
           transform="translate(307.9395,291.9443)"><path
             d="m 0,0 13.922,21.016 0,12.349 L 0,12.352 0,0 Z"
             style="fill:#052340;fill-opacity:1;fill-rule:nonzero;stroke:none"
             id="path62"
             inkscape:connector-curvature="0" /></g><g
           id="g64"
           transform="translate(230.8472,311.0889)"><path
             d="m 0,0 -5.401,12.691 -0.715,1.677 -1.597,3.754 -6.595,-17.401 0.354,-0.867 5.311,-12.97 0.841,1.274 L 0,0 Z"
             style="fill:#18468b;fill-opacity:1;fill-rule:nonzero;stroke:none"
             id="path66"
             inkscape:connector-curvature="0" /></g><g
           id="g68"
           transform="translate(420.2803,254.793)"><path
             d="m 0,0 c -0.575,0.405 -1.207,0.608 -1.902,0.608 -1.106,0 -2.039,-0.436 -2.796,-1.304 -0.76,-0.877 -1.141,-2.153 -1.141,-3.851 0,-1.596 0.379,-2.837 1.129,-3.722 0.754,-0.884 1.692,-1.328 2.808,-1.328 0.667,0 1.285,0.196 1.85,0.58 0.572,0.389 1.023,0.963 1.366,1.739 0.34,0.771 0.513,1.709 0.513,2.808 0,1.055 -0.158,1.965 -0.485,2.725 C 1.021,-0.987 0.572,-0.406 0,0"
             style="fill:#0f80cc;fill-opacity:1;fill-rule:nonzero;stroke:none"
             id="path70"
             inkscape:connector-curvature="0" /></g><g
           id="g72"
           transform="translate(433.3584,244.5332)"><path
             d="m 0,0 c 0,-0.812 -0.19,-1.42 -0.565,-1.828 -0.377,-0.404 -0.868,-0.607 -1.463,-0.607 -0.59,0 -1.065,0.207 -1.43,0.631 -0.37,0.421 -0.554,1.02 -0.554,1.804 l 0,17.391 c 0,0.801 0.182,1.411 0.535,1.821 0.36,0.408 0.84,0.613 1.449,0.613 0.61,0 1.096,-0.2 1.469,-0.607 C -0.188,18.813 0,18.204 0,17.391 L 0,0 Z m -7.745,2.343 c -0.353,-1.031 -0.824,-1.897 -1.432,-2.6 -0.608,-0.701 -1.326,-1.236 -2.154,-1.612 -0.828,-0.38 -1.718,-0.566 -2.662,-0.566 -1.147,0 -2.11,0.226 -2.888,0.69 -0.78,0.458 -1.521,1.137 -2.224,2.025 l 0,-6.022 c 0,-1.763 -0.64,-2.645 -1.925,-2.645 -0.756,0 -1.253,0.231 -1.497,0.684 -0.246,0.456 -0.369,1.122 -0.369,1.989 l 0,17.303 c 0,0.76 0.168,1.334 0.5,1.71 0.333,0.38 0.787,0.566 1.366,0.566 0.568,0 1.025,-0.19 1.388,-0.576 0.356,-0.392 0.537,-0.946 0.537,-1.67 l 0,-0.484 c 0.753,0.93 1.536,1.61 2.349,2.05 0.812,0.431 1.73,0.65 2.763,0.65 1.229,0 2.368,-0.316 3.405,-0.954 1.037,-0.636 1.856,-1.565 2.457,-2.788 0.604,-1.227 0.904,-2.673 0.904,-4.348 0,-1.234 -0.17,-2.367 -0.518,-3.402 m -0.523,24.213 c -0.113,0 -0.223,-0.01 -0.336,-0.017 l -28.707,0 c -3.842,0 -4.59,-1.952 -3.485,-4.903 l 9.994,-25.463 c 0,0 3.439,-9.882 8.903,-9.882 l 13.914,0 c 0.096,0 0.179,0.027 0.278,0.027 10.859,0.299 19.572,9.173 19.572,20.104 0,11.12 -9.012,20.134 -20.133,20.134"
             style="fill:#0f80cc;fill-opacity:1;fill-rule:nonzero;stroke:none"
             id="path74"
             inkscape:connector-curvature="0" /></g><g
           id="g76"
           transform="translate(139.0566,284.7334)"><path
             d="m 0,0 c -3.083,1.402 -6.089,3.297 -9.021,5.676 l -8.33,-9.981 c 3.722,-3.365 7.851,-5.871 12.373,-7.554 L 2.255,-0.881 C 1.49,-0.623 0.734,-0.334 0,0"
             style="fill:#18468b;fill-opacity:1;fill-rule:nonzero;stroke:none"
             id="path78"
             inkscape:connector-curvature="0" /></g><g
           id="g80"
           transform="translate(151.9604,309.457)"><path
             d="m 0,0 c -2.756,0.734 -5.036,1.375 -6.841,1.922 -1.806,0.55 -3.228,1.132 -4.269,1.742 -1.043,0.61 -1.763,1.297 -2.159,2.06 -0.397,0.763 -0.598,1.663 -0.598,2.702 l 0,0.183 c 0,0.75 0.159,1.44 0.466,2.074 L -23.633,-4.671 c 0.508,-0.533 1.043,-1.046 1.634,-1.51 1.833,-1.435 4.068,-2.639 6.704,-3.616 2.631,-0.977 5.568,-1.864 8.813,-2.657 1.415,-0.352 2.681,-0.695 3.819,-1.031 L 5.188,-1.569 C 3.569,-1.013 1.848,-0.487 0,0"
             style="fill:#18468b;fill-opacity:1;fill-rule:nonzero;stroke:none"
             id="path82"
             inkscape:connector-curvature="0" /></g><g
           id="g84"
           transform="translate(140.1558,322.0508)"><path
             d="m 0,0 c 1.375,1.066 3.434,1.601 6.182,1.601 2.747,0 5.495,-0.565 8.241,-1.696 2.748,-1.13 5.555,-2.67 8.424,-4.624 l 7.327,10.624 c -3.298,2.623 -6.916,4.639 -10.851,6.044 -3.26,1.162 -6.797,1.815 -10.576,2.015 L -0.89,-0.838 C -0.635,-0.544 -0.338,-0.264 0,0"
             style="fill:#18468b;fill-opacity:1;fill-rule:nonzero;stroke:none"
             id="path86"
             inkscape:connector-curvature="0" /></g><g
           id="g88"
           transform="translate(138.9063,320.6602)"><path
             d="m 0,0 0.36,0.553 9.636,14.801 c -0.788,0.042 -1.57,0.091 -2.381,0.091 -3.299,0 -6.314,-0.458 -9.052,-1.374 -2.735,-0.914 -5.09,-2.229 -7.062,-3.937 -1.971,-1.71 -3.502,-3.739 -4.595,-6.088 -1.092,-2.353 -1.635,-4.992 -1.635,-7.921 l 0,-0.186 c 0,-3.175 0.506,-5.83 1.514,-7.965 0.687,-1.45 1.574,-2.721 2.636,-3.848 L -0.347,-0.521 0,0 Z"
             style="fill:#0f80cc;fill-opacity:1;fill-rule:nonzero;stroke:none"
             id="path90"
             inkscape:connector-curvature="0" /></g><g
           id="g92"
           transform="translate(167.0645,302.7275)"><path
             d="M 0,0 C -1.744,1.494 -3.888,2.776 -6.425,3.846 -7.52,4.305 -8.694,4.741 -9.916,5.16 l -7.851,-11.916 c 1.025,-0.304 1.946,-0.6 2.746,-0.89 1.684,-0.613 3,-1.223 3.949,-1.833 0.948,-0.609 1.592,-1.267 1.926,-1.968 0.337,-0.704 0.507,-1.512 0.507,-2.426 l 0,-0.184 c 0,-1.892 -0.81,-3.375 -2.427,-4.441 -1.62,-1.068 -3.892,-1.602 -6.822,-1.602 -2.79,0 -5.411,0.411 -7.864,1.225 l -7.234,-10.979 c 0.151,-0.056 0.293,-0.128 0.445,-0.183 0.582,-0.209 1.172,-0.365 1.758,-0.545 4.137,-1.289 8.341,-1.973 12.618,-1.973 3.481,0 6.651,0.444 9.511,1.328 2.859,0.885 5.321,2.164 7.383,3.846 2.064,1.68 3.668,3.754 4.823,6.227 0.22,0.472 0.401,0.97 0.579,1.472 0.754,2.107 1.15,4.432 1.15,6.999 l 0,0.183 c 0,2.807 -0.445,5.219 -1.332,7.234 C 3.062,-3.252 1.744,-1.499 0,0"
             style="fill:#052340;fill-opacity:1;fill-rule:nonzero;stroke:none"
             id="path94"
             inkscape:connector-curvature="0" /></g><g
           id="g96"
           transform="translate(223.0449,299.2471)"><path
             d="m 0,0 -0.841,-1.274 0.022,-0.052 -0.056,0 -8.146,-12.436 13.24,-0.019 5.861,-14.377 14.744,0 -17.022,40 L 0,0 Z"
             style="fill:#052340;fill-opacity:1;fill-rule:nonzero;stroke:none"
             id="path98"
             inkscape:connector-curvature="0" /></g><g
           id="g100"
           transform="translate(211.2744,297.9209)"><path
             d="m 0,0 -4.686,-12.363 0.053,0 -0.053,-0.073 7.436,0 L 10.896,0 0,0 Z"
             style="fill:#18468b;fill-opacity:1;fill-rule:nonzero;stroke:none"
             id="path102"
             inkscape:connector-curvature="0" /></g></g></g></g></svg>